<svg xmlns="http://www.w3.org/2000/svg" xmlns:xlink="http://www.w3.org/1999/xlink" width="500" zoomAndPan="magnify" viewBox="0 0 375 374.999991" height="500" preserveAspectRatio="xMidYMid meet" version="1.0"><defs><g/><clipPath id="057e022355"><path d="M 70.660156 97 L 304.660156 97 L 304.660156 216 L 70.660156 216 Z M 70.660156 97 " clip-rule="nonzero"/></clipPath><clipPath id="1ea904f275"><path d="M 97 65.257812 L 278 65.257812 L 278 248 L 97 248 Z M 97 65.257812 " clip-rule="nonzero"/></clipPath><clipPath id="b8ef4b2ffe"><path d="M 179 138 L 196 138 L 196 175.382812 L 179 175.382812 Z M 179 138 " clip-rule="nonzero"/></clipPath><clipPath id="e710c4f7df"><rect x="0" width="232" y="0" height="21"/></clipPath><clipPath id="bb9e07a986"><rect x="0" width="266" y="0" height="29"/></clipPath></defs><path fill="#008bfa" d="M 174.171875 192.019531 L 174.171875 174.4375 C 174.171875 173.894531 173.867188 173.355469 173.394531 173.082031 L 158.140625 164.289062 L 158.140625 148.9375 L 173.394531 140.144531 C 173.867188 139.875 174.171875 139.335938 174.171875 138.792969 L 174.171875 121.207031 L 184.753906 115.089844 L 184.753906 198.140625 Z M 190.164062 115.089844 L 190.164062 198.140625 L 200.75 192.019531 L 200.75 174.4375 C 200.75 173.894531 201.054688 173.355469 201.527344 173.082031 L 216.78125 164.289062 L 216.78125 148.9375 L 201.527344 140.144531 C 201.054688 139.875 200.75 139.367188 200.75 138.792969 L 200.75 121.207031 Z M 190.164062 115.089844 " fill-opacity="1" fill-rule="nonzero"/><g clip-path="url(#057e022355)"><path fill="#004aad" d="M 105.691406 104.671875 L 102.648438 102.914062 L 102.648438 99.429688 L 105.691406 97.671875 L 108.734375 99.429688 L 108.734375 102.914062 Z M 70.660156 154.855469 L 70.660156 158.371094 L 73.703125 160.132812 L 76.710938 158.371094 L 76.710938 154.855469 L 73.703125 153.097656 Z M 272.273438 102.914062 L 272.273438 99.429688 L 269.230469 97.671875 L 266.183594 99.429688 L 266.183594 102.914062 L 269.230469 104.671875 Z M 266.183594 210.316406 L 266.183594 213.796875 L 269.230469 215.558594 L 272.273438 213.796875 L 272.273438 210.316406 L 269.230469 208.558594 Z M 86.652344 182.585938 L 86.652344 186.101562 L 89.695312 187.828125 L 92.707031 186.101562 L 92.707031 182.585938 L 89.695312 180.828125 Z M 301.21875 153.097656 L 298.210938 154.855469 L 298.210938 158.371094 L 301.21875 160.132812 L 304.261719 158.371094 L 304.261719 154.855469 Z M 282.214844 127.160156 L 282.214844 130.644531 L 285.222656 132.402344 L 288.269531 130.644531 L 288.269531 127.160156 L 285.222656 125.402344 Z M 282.214844 182.585938 L 282.214844 186.101562 L 285.222656 187.828125 L 288.269531 186.101562 L 288.269531 182.585938 L 285.222656 180.828125 Z M 102.648438 210.316406 L 102.648438 213.796875 L 105.691406 215.558594 L 108.734375 213.796875 L 108.734375 210.316406 L 105.691406 208.558594 Z M 86.652344 127.160156 L 86.652344 130.644531 L 89.695312 132.402344 L 92.707031 130.644531 L 92.707031 127.160156 L 89.695312 125.402344 Z M 86.652344 127.160156 " fill-opacity="1" fill-rule="nonzero"/></g><path fill="#008bfa" d="M 155.46875 144.273438 C 154.726562 143.832031 152.96875 142.816406 148.742188 140.382812 C 146.980469 139.367188 144.851562 138.117188 142.148438 136.5625 L 142.148438 121.207031 L 155.46875 113.53125 L 168.761719 121.207031 L 168.761719 136.5625 Z M 126.152344 148.9375 L 126.152344 164.289062 L 139.441406 171.96875 L 152.765625 164.289062 L 152.765625 148.9375 L 139.441406 141.261719 Z M 158.140625 108.867188 L 171.464844 116.542969 C 171.703125 116.40625 171.769531 116.371094 171.9375 116.269531 C 172.445312 115.96875 173.933594 115.121094 184.753906 108.867188 L 184.753906 93.480469 L 171.464844 85.804688 L 158.140625 93.480469 Z M 232.773438 136.5625 L 232.773438 121.207031 L 219.449219 113.53125 L 206.160156 121.207031 L 206.160156 136.5625 L 219.449219 144.273438 C 220.464844 143.695312 223.304688 142.039062 232.773438 136.5625 Z M 190.164062 108.867188 C 200.683594 114.953125 202.035156 115.730469 202.710938 116.101562 C 202.949219 116.238281 203.082031 116.339844 203.457031 116.542969 L 216.78125 108.867188 L 216.78125 93.480469 L 203.457031 85.804688 L 190.164062 93.480469 Z M 219.449219 199.695312 L 232.773438 192.019531 L 232.773438 176.667969 C 229.089844 174.503906 226.351562 172.914062 224.355469 171.730469 C 221.109375 169.835938 219.855469 169.125 219.417969 168.890625 C 219.25 168.992188 218.945312 169.160156 218.503906 169.429688 C 216.949219 170.378906 213.566406 172.371094 206.160156 176.667969 C 206.160156 179.507812 206.128906 181.875 206.128906 183.835938 L 206.128906 188.875 C 206.128906 190.566406 206.128906 191.511719 206.160156 192.019531 Z M 248.769531 164.289062 L 248.769531 148.9375 L 235.480469 141.261719 L 222.15625 148.9375 L 222.15625 164.289062 L 235.480469 171.96875 Z M 168.761719 192.019531 C 168.792969 191.480469 168.792969 190.53125 168.792969 188.808594 L 168.792969 183.667969 C 168.792969 181.738281 168.761719 179.441406 168.761719 176.667969 C 165.683594 174.875 163.25 173.457031 161.355469 172.371094 C 157.601562 170.175781 156.011719 169.261719 155.503906 168.921875 L 142.148438 176.667969 L 142.148438 192.019531 L 155.46875 199.695312 C 158.140625 198.175781 166.898438 193.101562 168.761719 192.019531 Z M 216.78125 204.363281 L 203.457031 196.6875 C 202.984375 196.957031 202.847656 197.023438 202.679688 197.125 C 202.203125 197.429688 201.292969 197.9375 190.164062 204.363281 L 190.164062 219.75 C 190.707031 220.054688 191.890625 220.730469 194.460938 222.21875 C 196.457031 223.367188 199.332031 225.023438 203.457031 227.425781 L 216.78125 219.75 Z M 184.753906 204.363281 C 174.171875 198.242188 172.886719 197.5 172.175781 197.09375 C 171.972656 196.992188 171.804688 196.890625 171.464844 196.6875 L 158.140625 204.363281 L 158.140625 219.75 L 171.464844 227.425781 C 174.035156 225.9375 176.132812 224.722656 177.855469 223.742188 C 182.21875 221.203125 184.011719 220.191406 184.753906 219.75 Z M 184.753906 204.363281 " fill-opacity="1" fill-rule="nonzero"/><g clip-path="url(#1ea904f275)"><path fill="#004aad" d="M 122.566406 136.933594 L 115.632812 132.910156 L 115.632812 124.894531 L 122.566406 120.871094 L 129.53125 124.894531 L 129.53125 132.910156 Z M 162.300781 77.417969 L 162.300781 69.503906 L 155.46875 65.546875 L 148.605469 69.503906 L 148.605469 77.417969 L 155.46875 81.371094 Z M 144.34375 104.503906 L 144.34375 97.839844 L 138.5625 94.527344 L 132.8125 97.839844 L 132.8125 104.503906 L 138.5625 107.851562 Z M 195.035156 81.574219 L 195.035156 72.851562 L 187.460938 68.453125 L 179.886719 72.851562 L 179.886719 81.574219 L 187.460938 85.972656 Z M 242.109375 104.503906 L 242.109375 97.839844 L 236.359375 94.527344 L 230.578125 97.839844 L 230.578125 104.503906 L 236.359375 107.851562 Z M 226.316406 77.417969 L 226.316406 69.503906 L 219.449219 65.546875 L 212.621094 69.503906 L 212.621094 77.417969 L 219.449219 81.371094 Z M 245.386719 180.320312 L 245.386719 188.335938 L 252.355469 192.359375 L 259.320312 188.335938 L 259.320312 180.320312 L 252.355469 176.296875 Z M 227.566406 207 L 227.566406 217.113281 L 236.359375 222.183594 L 245.117188 217.113281 L 245.117188 207 L 236.359375 201.929688 Z M 259.589844 151.542969 L 259.589844 161.6875 L 268.351562 166.726562 L 277.109375 161.6875 L 277.109375 151.542969 L 268.351562 146.503906 Z M 212.621094 235.8125 L 212.621094 243.726562 L 219.449219 247.683594 L 226.316406 243.726562 L 226.316406 235.8125 L 219.449219 231.855469 Z M 245.386719 124.894531 L 245.386719 132.910156 L 252.355469 136.933594 L 259.320312 132.910156 L 259.320312 124.894531 L 252.355469 120.871094 Z M 97.8125 151.542969 L 97.8125 161.6875 L 106.570312 166.726562 L 115.332031 161.6875 L 115.332031 151.542969 L 106.570312 146.503906 Z M 115.632812 180.320312 L 115.632812 188.335938 L 122.566406 192.359375 L 129.53125 188.335938 L 129.53125 180.320312 L 122.566406 176.296875 Z M 129.804688 207 L 129.804688 217.113281 L 138.5625 222.183594 L 147.355469 217.113281 L 147.355469 207 L 138.5625 201.929688 Z M 188.40625 227.222656 C 188.339844 227.257812 188.304688 227.289062 188.238281 227.324219 C 187.765625 227.59375 187.15625 227.59375 186.683594 227.324219 C 186.648438 227.289062 186.582031 227.257812 186.546875 227.222656 C 186.140625 227.460938 185.332031 227.933594 183.742188 228.847656 C 182.558594 229.558594 181.035156 230.46875 179.007812 231.621094 L 179.007812 240.378906 L 186.546875 244.773438 C 186.785156 244.640625 187.121094 244.539062 187.460938 244.539062 C 187.800781 244.539062 188.136719 244.640625 188.375 244.773438 L 195.914062 240.378906 L 195.914062 231.621094 C 193.917969 230.46875 192.363281 229.558594 191.214844 228.878906 C 189.523438 227.898438 188.746094 227.425781 188.40625 227.222656 Z M 148.605469 235.8125 L 148.605469 243.726562 L 155.46875 247.683594 L 162.300781 243.726562 L 162.300781 235.8125 L 155.46875 231.855469 Z M 148.605469 235.8125 " fill-opacity="1" fill-rule="nonzero"/></g><path fill="#ffffff" d="M 174.253906 170.191406 C 173.460938 170.191406 172.929688 169.925781 172.402344 169.398438 L 161.808594 158.804688 C 160.75 157.746094 160.75 156.15625 161.808594 155.097656 L 172.402344 144.503906 C 173.460938 143.445312 175.050781 143.445312 176.109375 144.503906 C 177.167969 145.5625 177.167969 147.152344 176.109375 148.210938 L 167.371094 156.949219 L 176.109375 165.691406 C 177.167969 166.75 177.167969 168.335938 176.109375 169.398438 C 175.578125 169.925781 175.050781 170.191406 174.253906 170.191406 Z M 174.253906 170.191406 " fill-opacity="1" fill-rule="nonzero"/><path fill="#ffffff" d="M 200.738281 170.191406 C 199.941406 170.191406 199.414062 169.925781 198.882812 169.398438 C 197.824219 168.335938 197.824219 166.75 198.882812 165.691406 L 207.625 156.949219 L 198.882812 148.210938 C 197.824219 147.152344 197.824219 145.5625 198.882812 144.503906 C 199.941406 143.445312 201.53125 143.445312 202.589844 144.503906 L 213.183594 155.097656 C 214.242188 156.15625 214.242188 157.746094 213.183594 158.804688 L 202.589844 169.398438 C 202.0625 169.925781 201.53125 170.191406 200.738281 170.191406 Z M 200.738281 170.191406 " fill-opacity="1" fill-rule="nonzero"/><g clip-path="url(#b8ef4b2ffe)"><path fill="#ffffff" d="M 182.199219 175.488281 C 181.933594 175.488281 181.671875 175.488281 181.40625 175.222656 C 180.082031 174.695312 179.285156 173.371094 179.816406 171.78125 L 190.410156 140 C 190.9375 138.675781 192.261719 137.882812 193.851562 138.414062 C 195.175781 138.941406 195.972656 140.265625 195.441406 141.855469 L 184.847656 173.632812 C 184.320312 174.695312 183.257812 175.488281 182.199219 175.488281 Z M 182.199219 175.488281 " fill-opacity="1" fill-rule="nonzero"/></g><g transform="matrix(1, 0, 0, 1, 71, 288)"><g clip-path="url(#e710c4f7df)"><g fill="#004aad" fill-opacity="1"><g transform="translate(1.001735, 15.609257)"><g><path d="M 3.59375 -5.625 L 4.328125 -5.625 C 5.023438 -5.625 5.546875 -5.757812 5.890625 -6.03125 C 6.234375 -6.300781 6.40625 -6.703125 6.40625 -7.234375 C 6.40625 -7.753906 6.257812 -8.140625 5.96875 -8.390625 C 5.675781 -8.648438 5.222656 -8.78125 4.609375 -8.78125 L 3.59375 -8.78125 Z M 8.671875 -7.3125 C 8.671875 -6.164062 8.3125 -5.289062 7.59375 -4.6875 C 6.882812 -4.082031 5.867188 -3.78125 4.546875 -3.78125 L 3.59375 -3.78125 L 3.59375 0 L 1.34375 0 L 1.34375 -10.625 L 4.734375 -10.625 C 6.015625 -10.625 6.988281 -10.34375 7.65625 -9.78125 C 8.332031 -9.226562 8.671875 -8.40625 8.671875 -7.3125 Z M 8.671875 -7.3125 "/></g></g></g><g fill="#004aad" fill-opacity="1"><g transform="translate(11.930567, 15.609257)"><g><path d="M 3.59375 -5.90625 L 4.3125 -5.90625 C 5.019531 -5.90625 5.546875 -6.019531 5.890625 -6.25 C 6.234375 -6.488281 6.40625 -6.863281 6.40625 -7.375 C 6.40625 -7.882812 6.226562 -8.242188 5.875 -8.453125 C 5.53125 -8.671875 4.992188 -8.78125 4.265625 -8.78125 L 3.59375 -8.78125 Z M 3.59375 -4.078125 L 3.59375 0 L 1.34375 0 L 1.34375 -10.625 L 4.4375 -10.625 C 5.875 -10.625 6.9375 -10.359375 7.625 -9.828125 C 8.320312 -9.304688 8.671875 -8.507812 8.671875 -7.4375 C 8.671875 -6.8125 8.5 -6.253906 8.15625 -5.765625 C 7.8125 -5.285156 7.328125 -4.90625 6.703125 -4.625 C 8.296875 -2.238281 9.332031 -0.695312 9.8125 0 L 7.328125 0 L 4.78125 -4.078125 Z M 3.59375 -4.078125 "/></g></g></g><g fill="#004aad" fill-opacity="1"><g transform="translate(23.338596, 15.609257)"><g><path d="M 10.96875 -5.328125 C 10.96875 -3.566406 10.53125 -2.210938 9.65625 -1.265625 C 8.789062 -0.328125 7.546875 0.140625 5.921875 0.140625 C 4.296875 0.140625 3.046875 -0.328125 2.171875 -1.265625 C 1.296875 -2.210938 0.859375 -3.570312 0.859375 -5.34375 C 0.859375 -7.101562 1.296875 -8.445312 2.171875 -9.375 C 3.046875 -10.3125 4.300781 -10.78125 5.9375 -10.78125 C 7.5625 -10.78125 8.804688 -10.3125 9.671875 -9.375 C 10.535156 -8.4375 10.96875 -7.085938 10.96875 -5.328125 Z M 3.21875 -5.328125 C 3.21875 -4.140625 3.441406 -3.242188 3.890625 -2.640625 C 4.347656 -2.046875 5.023438 -1.75 5.921875 -1.75 C 7.710938 -1.75 8.609375 -2.941406 8.609375 -5.328125 C 8.609375 -7.710938 7.71875 -8.90625 5.9375 -8.90625 C 5.039062 -8.90625 4.363281 -8.601562 3.90625 -8 C 3.445312 -7.40625 3.21875 -6.515625 3.21875 -5.328125 Z M 3.21875 -5.328125 "/></g></g></g><g fill="#004aad" fill-opacity="1"><g transform="translate(36.765058, 15.609257)"><g><path d="M 5.375 -5.96875 L 9.578125 -5.96875 L 9.578125 -0.453125 C 8.898438 -0.234375 8.257812 -0.0820312 7.65625 0 C 7.050781 0.09375 6.429688 0.140625 5.796875 0.140625 C 4.203125 0.140625 2.976562 -0.328125 2.125 -1.265625 C 1.28125 -2.210938 0.859375 -3.566406 0.859375 -5.328125 C 0.859375 -7.035156 1.347656 -8.367188 2.328125 -9.328125 C 3.316406 -10.285156 4.675781 -10.765625 6.40625 -10.765625 C 7.5 -10.765625 8.550781 -10.550781 9.5625 -10.125 L 8.8125 -8.3125 C 8.039062 -8.695312 7.238281 -8.890625 6.40625 -8.890625 C 5.425781 -8.890625 4.644531 -8.5625 4.0625 -7.90625 C 3.476562 -7.257812 3.1875 -6.382812 3.1875 -5.28125 C 3.1875 -4.125 3.421875 -3.242188 3.890625 -2.640625 C 4.359375 -2.035156 5.046875 -1.734375 5.953125 -1.734375 C 6.421875 -1.734375 6.894531 -1.78125 7.375 -1.875 L 7.375 -4.09375 L 5.375 -4.09375 Z M 5.375 -5.96875 "/></g></g></g><g fill="#004aad" fill-opacity="1"><g transform="translate(49.124225, 15.609257)"><g><path d="M 3.59375 -5.90625 L 4.3125 -5.90625 C 5.019531 -5.90625 5.546875 -6.019531 5.890625 -6.25 C 6.234375 -6.488281 6.40625 -6.863281 6.40625 -7.375 C 6.40625 -7.882812 6.226562 -8.242188 5.875 -8.453125 C 5.53125 -8.671875 4.992188 -8.78125 4.265625 -8.78125 L 3.59375 -8.78125 Z M 3.59375 -4.078125 L 3.59375 0 L 1.34375 0 L 1.34375 -10.625 L 4.4375 -10.625 C 5.875 -10.625 6.9375 -10.359375 7.625 -9.828125 C 8.320312 -9.304688 8.671875 -8.507812 8.671875 -7.4375 C 8.671875 -6.8125 8.5 -6.253906 8.15625 -5.765625 C 7.8125 -5.285156 7.328125 -4.90625 6.703125 -4.625 C 8.296875 -2.238281 9.332031 -0.695312 9.8125 0 L 7.328125 0 L 4.78125 -4.078125 Z M 3.59375 -4.078125 "/></g></g></g><g fill="#004aad" fill-opacity="1"><g transform="translate(60.532254, 15.609257)"><g><path d="M 7.84375 0 L 7.0625 -2.53125 L 3.203125 -2.53125 L 2.421875 0 L 0 0 L 3.75 -10.65625 L 6.5 -10.65625 L 10.265625 0 Z M 6.53125 -4.421875 C 5.820312 -6.703125 5.421875 -7.992188 5.328125 -8.296875 C 5.234375 -8.597656 5.171875 -8.835938 5.140625 -9.015625 C 4.972656 -8.390625 4.515625 -6.859375 3.765625 -4.421875 Z M 6.53125 -4.421875 "/></g></g></g><g fill="#004aad" fill-opacity="1"><g transform="translate(72.383182, 15.609257)"><g><path d="M 5.828125 0 L 3.28125 -8.328125 L 3.203125 -8.328125 C 3.296875 -6.628906 3.34375 -5.5 3.34375 -4.9375 L 3.34375 0 L 1.34375 0 L 1.34375 -10.625 L 4.40625 -10.625 L 6.921875 -2.5 L 6.953125 -2.5 L 9.625 -10.625 L 12.6875 -10.625 L 12.6875 0 L 10.59375 0 L 10.59375 -5.03125 C 10.59375 -5.257812 10.59375 -5.53125 10.59375 -5.84375 C 10.601562 -6.15625 10.640625 -6.976562 10.703125 -8.3125 L 10.640625 -8.3125 L 7.890625 0 Z M 5.828125 0 "/></g></g></g><g fill="#004aad" fill-opacity="1"><g transform="translate(87.995076, 15.609257)"><g><path d="M 7.84375 0 L 7.0625 -2.53125 L 3.203125 -2.53125 L 2.421875 0 L 0 0 L 3.75 -10.65625 L 6.5 -10.65625 L 10.265625 0 Z M 6.53125 -4.421875 C 5.820312 -6.703125 5.421875 -7.992188 5.328125 -8.296875 C 5.234375 -8.597656 5.171875 -8.835938 5.140625 -9.015625 C 4.972656 -8.390625 4.515625 -6.859375 3.765625 -4.421875 Z M 6.53125 -4.421875 "/></g></g></g><g fill="#004aad" fill-opacity="1"><g transform="translate(99.846005, 15.609257)"><g><path d="M 10.140625 -5.40625 C 10.140625 -3.664062 9.640625 -2.328125 8.640625 -1.390625 C 7.648438 -0.460938 6.21875 0 4.34375 0 L 1.34375 0 L 1.34375 -10.625 L 4.671875 -10.625 C 6.398438 -10.625 7.742188 -10.164062 8.703125 -9.25 C 9.660156 -8.332031 10.140625 -7.050781 10.140625 -5.40625 Z M 7.8125 -5.359375 C 7.8125 -7.640625 6.800781 -8.78125 4.78125 -8.78125 L 3.59375 -8.78125 L 3.59375 -1.859375 L 4.546875 -1.859375 C 6.722656 -1.859375 7.8125 -3.023438 7.8125 -5.359375 Z M 7.8125 -5.359375 "/></g></g></g><g fill="#004aad" fill-opacity="1"><g transform="translate(112.444764, 15.609257)"><g><path d="M 10.96875 -5.328125 C 10.96875 -3.566406 10.53125 -2.210938 9.65625 -1.265625 C 8.789062 -0.328125 7.546875 0.140625 5.921875 0.140625 C 4.296875 0.140625 3.046875 -0.328125 2.171875 -1.265625 C 1.296875 -2.210938 0.859375 -3.570312 0.859375 -5.34375 C 0.859375 -7.101562 1.296875 -8.445312 2.171875 -9.375 C 3.046875 -10.3125 4.300781 -10.78125 5.9375 -10.78125 C 7.5625 -10.78125 8.804688 -10.3125 9.671875 -9.375 C 10.535156 -8.4375 10.96875 -7.085938 10.96875 -5.328125 Z M 3.21875 -5.328125 C 3.21875 -4.140625 3.441406 -3.242188 3.890625 -2.640625 C 4.347656 -2.046875 5.023438 -1.75 5.921875 -1.75 C 7.710938 -1.75 8.609375 -2.941406 8.609375 -5.328125 C 8.609375 -7.710938 7.71875 -8.90625 5.9375 -8.90625 C 5.039062 -8.90625 4.363281 -8.601562 3.90625 -8 C 3.445312 -7.40625 3.21875 -6.515625 3.21875 -5.328125 Z M 3.21875 -5.328125 "/></g></g></g><g fill="#004aad" fill-opacity="1"><g transform="translate(125.871226, 15.609257)"><g><path d="M 3.59375 -5.90625 L 4.3125 -5.90625 C 5.019531 -5.90625 5.546875 -6.019531 5.890625 -6.25 C 6.234375 -6.488281 6.40625 -6.863281 6.40625 -7.375 C 6.40625 -7.882812 6.226562 -8.242188 5.875 -8.453125 C 5.53125 -8.671875 4.992188 -8.78125 4.265625 -8.78125 L 3.59375 -8.78125 Z M 3.59375 -4.078125 L 3.59375 0 L 1.34375 0 L 1.34375 -10.625 L 4.4375 -10.625 C 5.875 -10.625 6.9375 -10.359375 7.625 -9.828125 C 8.320312 -9.304688 8.671875 -8.507812 8.671875 -7.4375 C 8.671875 -6.8125 8.5 -6.253906 8.15625 -5.765625 C 7.8125 -5.285156 7.328125 -4.90625 6.703125 -4.625 C 8.296875 -2.238281 9.332031 -0.695312 9.8125 0 L 7.328125 0 L 4.78125 -4.078125 Z M 3.59375 -4.078125 "/></g></g></g><g fill="#004aad" fill-opacity="1"><g transform="translate(137.279254, 15.609257)"><g/></g></g><g fill="#004aad" fill-opacity="1"><g transform="translate(142.73363, 15.609257)"><g><path d="M 1.34375 -10.625 L 4.640625 -10.625 C 6.148438 -10.625 7.242188 -10.40625 7.921875 -9.96875 C 8.597656 -9.539062 8.9375 -8.863281 8.9375 -7.9375 C 8.9375 -7.300781 8.785156 -6.78125 8.484375 -6.375 C 8.191406 -5.96875 7.800781 -5.722656 7.3125 -5.640625 L 7.3125 -5.5625 C 7.976562 -5.414062 8.457031 -5.132812 8.75 -4.71875 C 9.050781 -4.3125 9.203125 -3.765625 9.203125 -3.078125 C 9.203125 -2.109375 8.851562 -1.351562 8.15625 -0.8125 C 7.457031 -0.269531 6.507812 0 5.3125 0 L 1.34375 0 Z M 3.59375 -6.40625 L 4.890625 -6.40625 C 5.503906 -6.40625 5.945312 -6.5 6.21875 -6.6875 C 6.488281 -6.882812 6.625 -7.203125 6.625 -7.640625 C 6.625 -8.046875 6.472656 -8.335938 6.171875 -8.515625 C 5.878906 -8.691406 5.410156 -8.78125 4.765625 -8.78125 L 3.59375 -8.78125 Z M 3.59375 -4.625 L 3.59375 -1.859375 L 5.0625 -1.859375 C 5.675781 -1.859375 6.128906 -1.976562 6.421875 -2.21875 C 6.722656 -2.457031 6.875 -2.820312 6.875 -3.3125 C 6.875 -4.1875 6.242188 -4.625 4.984375 -4.625 Z M 3.59375 -4.625 "/></g></g></g><g fill="#004aad" fill-opacity="1"><g transform="translate(154.315911, 15.609257)"><g><path d="M 7.84375 0 L 7.0625 -2.53125 L 3.203125 -2.53125 L 2.421875 0 L 0 0 L 3.75 -10.65625 L 6.5 -10.65625 L 10.265625 0 Z M 6.53125 -4.421875 C 5.820312 -6.703125 5.421875 -7.992188 5.328125 -8.296875 C 5.234375 -8.597656 5.171875 -8.835938 5.140625 -9.015625 C 4.972656 -8.390625 4.515625 -6.859375 3.765625 -4.421875 Z M 6.53125 -4.421875 "/></g></g></g><g fill="#004aad" fill-opacity="1"><g transform="translate(166.16684, 15.609257)"><g><path d="M 5.84375 -8.890625 C 5 -8.890625 4.34375 -8.570312 3.875 -7.9375 C 3.414062 -7.300781 3.1875 -6.414062 3.1875 -5.28125 C 3.1875 -2.914062 4.070312 -1.734375 5.84375 -1.734375 C 6.59375 -1.734375 7.5 -1.914062 8.5625 -2.28125 L 8.5625 -0.40625 C 7.6875 -0.0390625 6.710938 0.140625 5.640625 0.140625 C 4.085938 0.140625 2.898438 -0.328125 2.078125 -1.265625 C 1.265625 -2.203125 0.859375 -3.546875 0.859375 -5.296875 C 0.859375 -6.398438 1.054688 -7.363281 1.453125 -8.1875 C 1.859375 -9.019531 2.4375 -9.65625 3.1875 -10.09375 C 3.945312 -10.539062 4.832031 -10.765625 5.84375 -10.765625 C 6.875 -10.765625 7.910156 -10.515625 8.953125 -10.015625 L 8.234375 -8.1875 C 7.835938 -8.375 7.4375 -8.535156 7.03125 -8.671875 C 6.625 -8.816406 6.226562 -8.890625 5.84375 -8.890625 Z M 5.84375 -8.890625 "/></g></g></g><g fill="#004aad" fill-opacity="1"><g transform="translate(177.233628, 15.609257)"><g><path d="M 9.875 0 L 7.328125 0 L 4.546875 -4.46875 L 3.59375 -3.796875 L 3.59375 0 L 1.34375 0 L 1.34375 -10.625 L 3.59375 -10.625 L 3.59375 -5.765625 L 4.46875 -7.015625 L 7.34375 -10.625 L 9.84375 -10.625 L 6.140625 -5.921875 Z M 9.875 0 "/></g></g></g><g fill="#004aad" fill-opacity="1"><g transform="translate(188.699741, 15.609257)"><g><path d="M 0.4375 -3.078125 L 0.4375 -4.890625 L 4.34375 -4.890625 L 4.34375 -3.078125 Z M 0.4375 -3.078125 "/></g></g></g><g fill="#004aad" fill-opacity="1"><g transform="translate(195.076213, 15.609257)"><g><path d="M 7.453125 0 L 1.34375 0 L 1.34375 -10.625 L 7.453125 -10.625 L 7.453125 -8.78125 L 3.59375 -8.78125 L 3.59375 -6.4375 L 7.1875 -6.4375 L 7.1875 -4.59375 L 3.59375 -4.59375 L 3.59375 -1.859375 L 7.453125 -1.859375 Z M 7.453125 0 "/></g></g></g><g fill="#004aad" fill-opacity="1"><g transform="translate(204.995834, 15.609257)"><g><path d="M 10.75 0 L 7.890625 0 L 3.28125 -8.03125 L 3.203125 -8.03125 C 3.296875 -6.613281 3.34375 -5.601562 3.34375 -5 L 3.34375 0 L 1.34375 0 L 1.34375 -10.625 L 4.171875 -10.625 L 8.78125 -2.671875 L 8.84375 -2.671875 C 8.769531 -4.046875 8.734375 -5.019531 8.734375 -5.59375 L 8.734375 -10.625 L 10.75 -10.625 Z M 10.75 0 "/></g></g></g><g fill="#004aad" fill-opacity="1"><g transform="translate(218.676422, 15.609257)"><g><path d="M 10.140625 -5.40625 C 10.140625 -3.664062 9.640625 -2.328125 8.640625 -1.390625 C 7.648438 -0.460938 6.21875 0 4.34375 0 L 1.34375 0 L 1.34375 -10.625 L 4.671875 -10.625 C 6.398438 -10.625 7.742188 -10.164062 8.703125 -9.25 C 9.660156 -8.332031 10.140625 -7.050781 10.140625 -5.40625 Z M 7.8125 -5.359375 C 7.8125 -7.640625 6.800781 -8.78125 4.78125 -8.78125 L 3.59375 -8.78125 L 3.59375 -1.859375 L 4.546875 -1.859375 C 6.722656 -1.859375 7.8125 -3.023438 7.8125 -5.359375 Z M 7.8125 -5.359375 "/></g></g></g></g></g><g transform="matrix(1, 0, 0, 1, 55, 258)"><g clip-path="url(#bb9e07a986)"><g fill="#008bfa" fill-opacity="1"><g transform="translate(0.715319, 22.403942)"><g><path d="M 4.5625 0.28125 C 2.769531 0.28125 1.875 -0.535156 1.875 -2.171875 L 1.875 -17.75 C 1.875 -18.4375 2.0625 -18.972656 2.4375 -19.359375 C 2.820312 -19.753906 3.367188 -19.953125 4.078125 -19.953125 L 18.5 -19.953125 C 19.882812 -19.953125 20.578125 -19.265625 20.578125 -17.890625 C 20.578125 -16.484375 19.882812 -15.78125 18.5 -15.78125 L 7.234375 -15.78125 L 7.234375 -10.65625 L 15.640625 -10.65625 C 16.367188 -10.65625 16.898438 -10.476562 17.234375 -10.125 C 17.566406 -9.78125 17.734375 -9.265625 17.734375 -8.578125 C 17.734375 -7.191406 17.035156 -6.5 15.640625 -6.5 L 7.234375 -6.5 L 7.234375 -2.171875 C 7.234375 -1.316406 7.015625 -0.691406 6.578125 -0.296875 C 6.140625 0.0859375 5.46875 0.28125 4.5625 0.28125 Z M 4.5625 0.28125 "/></g></g></g><g fill="#008bfa" fill-opacity="1"><g transform="translate(21.290861, 22.403942)"><g><path d="M 4.5625 0.28125 C 2.769531 0.28125 1.875 -0.535156 1.875 -2.171875 L 1.875 -17.75 C 1.875 -18.4375 2.0625 -18.972656 2.4375 -19.359375 C 2.820312 -19.753906 3.367188 -19.953125 4.078125 -19.953125 L 13.390625 -19.953125 C 15.828125 -19.953125 17.613281 -19.441406 18.75 -18.421875 C 19.894531 -17.410156 20.46875 -15.859375 20.46875 -13.765625 C 20.46875 -11.023438 19.476562 -9.191406 17.5 -8.265625 C 17.820312 -7.941406 18.113281 -7.582031 18.375 -7.1875 L 20.640625 -4.125 C 21.054688 -3.632812 21.265625 -3.054688 21.265625 -2.390625 C 21.265625 -2.035156 21.191406 -1.6875 21.046875 -1.34375 C 20.898438 -1 20.675781 -0.691406 20.375 -0.421875 C 19.84375 0.015625 19.265625 0.234375 18.640625 0.234375 C 17.816406 0.234375 17.148438 -0.0703125 16.640625 -0.6875 L 13.25 -4.953125 C 12.894531 -5.503906 12.488281 -5.894531 12.03125 -6.125 C 11.570312 -6.351562 10.894531 -6.46875 10 -6.46875 L 7.234375 -6.46875 L 7.234375 -2.171875 C 7.234375 -1.316406 7.015625 -0.691406 6.578125 -0.296875 C 6.140625 0.0859375 5.46875 0.28125 4.5625 0.28125 Z M 7.234375 -10.578125 L 12.3125 -10.578125 C 13.257812 -10.578125 13.957031 -10.785156 14.40625 -11.203125 C 14.851562 -11.617188 15.078125 -12.285156 15.078125 -13.203125 C 15.078125 -14.941406 14.15625 -15.8125 12.3125 -15.8125 L 7.234375 -15.8125 Z M 7.234375 -10.578125 "/></g></g></g><g fill="#008bfa" fill-opacity="1"><g transform="translate(42.80685, 22.403942)"><g><path d="M 1.515625 0 C 1.035156 -0.25 0.664062 -0.59375 0.40625 -1.03125 C 0.15625 -1.46875 0.03125 -1.929688 0.03125 -2.421875 C 0.03125 -2.835938 0.113281 -3.226562 0.28125 -3.59375 L 6.71875 -17.875 C 7.082031 -18.613281 7.59375 -19.191406 8.25 -19.609375 C 8.90625 -20.023438 9.773438 -20.234375 10.859375 -20.234375 C 11.960938 -20.234375 12.835938 -20.019531 13.484375 -19.59375 C 14.128906 -19.164062 14.628906 -18.59375 14.984375 -17.875 L 21.40625 -3.59375 C 21.570312 -3.226562 21.65625 -2.835938 21.65625 -2.421875 C 21.65625 -1.929688 21.523438 -1.46875 21.265625 -1.03125 C 21.015625 -0.59375 20.648438 -0.25 20.171875 0 C 19.816406 0.164062 19.421875 0.25 18.984375 0.25 C 18.503906 0.25 18.039062 0.125 17.59375 -0.125 C 17.144531 -0.382812 16.8125 -0.75 16.59375 -1.21875 L 15.28125 -4.15625 L 6.40625 -4.15625 L 5.09375 -1.21875 C 4.875 -0.75 4.546875 -0.382812 4.109375 -0.125 C 3.671875 0.125 3.203125 0.25 2.703125 0.25 C 2.285156 0.25 1.890625 0.164062 1.515625 0 Z M 8.265625 -8.328125 L 13.421875 -8.328125 L 10.828125 -14.109375 Z M 8.265625 -8.328125 "/></g></g></g><g fill="#008bfa" fill-opacity="1"><g transform="translate(63.923858, 22.403942)"><g><path d="M 4.5625 0.28125 C 3.664062 0.28125 2.992188 0.0859375 2.546875 -0.296875 C 2.097656 -0.691406 1.875 -1.316406 1.875 -2.171875 L 1.875 -17.078125 C 1.875 -17.984375 2.164062 -18.734375 2.75 -19.328125 C 3.34375 -19.929688 4.234375 -20.234375 5.421875 -20.234375 C 6.421875 -20.234375 7.210938 -20.0625 7.796875 -19.71875 C 8.390625 -19.375 8.894531 -18.863281 9.3125 -18.1875 L 16.328125 -7.296875 L 16.328125 -17.8125 C 16.328125 -19.425781 17.222656 -20.234375 19.015625 -20.234375 C 19.898438 -20.234375 20.566406 -20.035156 21.015625 -19.640625 C 21.460938 -19.253906 21.6875 -18.644531 21.6875 -17.8125 L 21.6875 -2.875 C 21.6875 -1.976562 21.382812 -1.226562 20.78125 -0.625 C 20.1875 -0.0195312 19.300781 0.28125 18.125 0.28125 C 17.132812 0.28125 16.34375 0.113281 15.75 -0.21875 C 15.164062 -0.550781 14.65625 -1.066406 14.21875 -1.765625 L 7.234375 -12.625 L 7.234375 -2.171875 C 7.234375 -0.535156 6.34375 0.28125 4.5625 0.28125 Z M 4.5625 0.28125 "/></g></g></g><g fill="#008bfa" fill-opacity="1"><g transform="translate(86.921763, 22.403942)"><g><path d="M 17.703125 -0.484375 L 10.171875 -7.890625 L 7.4375 -7.890625 L 7.4375 -2.21875 C 7.4375 -1.34375 7.207031 -0.707031 6.75 -0.3125 C 6.300781 0.0820312 5.609375 0.28125 4.671875 0.28125 C 2.804688 0.28125 1.875 -0.550781 1.875 -2.21875 L 1.875 -17.75 C 1.875 -19.40625 2.804688 -20.234375 4.671875 -20.234375 C 5.609375 -20.234375 6.300781 -20.039062 6.75 -19.65625 C 7.207031 -19.28125 7.4375 -18.644531 7.4375 -17.75 L 7.4375 -12.109375 L 10.234375 -12.109375 L 17.703125 -19.46875 C 18.210938 -19.976562 18.835938 -20.234375 19.578125 -20.234375 C 20.378906 -20.234375 21.054688 -19.9375 21.609375 -19.34375 C 21.867188 -19.082031 22.054688 -18.789062 22.171875 -18.46875 C 22.285156 -18.144531 22.34375 -17.820312 22.34375 -17.5 C 22.34375 -16.695312 22.054688 -16.015625 21.484375 -15.453125 L 16.28125 -9.96875 L 21.484375 -4.5 C 21.773438 -4.238281 21.988281 -3.929688 22.125 -3.578125 C 22.269531 -3.222656 22.34375 -2.859375 22.34375 -2.484375 C 22.34375 -1.742188 22.097656 -1.113281 21.609375 -0.59375 C 21.054688 -0.0078125 20.378906 0.28125 19.578125 0.28125 C 18.878906 0.28125 18.253906 0.0234375 17.703125 -0.484375 Z M 17.703125 -0.484375 "/></g></g></g><g fill="#008bfa" fill-opacity="1"><g transform="translate(109.207201, 22.403942)"><g/></g></g><g fill="#008bfa" fill-opacity="1"><g transform="translate(117.699461, 22.403942)"><g><path d="M 12.171875 0.28125 C 8.597656 0.28125 5.894531 -0.601562 4.0625 -2.375 C 2.226562 -4.15625 1.3125 -6.6875 1.3125 -9.96875 C 1.3125 -13.28125 2.226562 -15.816406 4.0625 -17.578125 C 5.894531 -19.347656 8.597656 -20.234375 12.171875 -20.234375 C 15.742188 -20.234375 18.441406 -19.347656 20.265625 -17.578125 C 22.085938 -15.816406 23 -13.28125 23 -9.96875 C 23 -6.6875 22.085938 -4.15625 20.265625 -2.375 C 18.441406 -0.601562 15.742188 0.28125 12.171875 0.28125 Z M 6.703125 -9.96875 C 6.703125 -7.9375 7.179688 -6.410156 8.140625 -5.390625 C 9.097656 -4.378906 10.441406 -3.875 12.171875 -3.875 C 13.878906 -3.875 15.21875 -4.378906 16.1875 -5.390625 C 17.15625 -6.410156 17.640625 -7.9375 17.640625 -9.96875 C 17.640625 -12.019531 17.15625 -13.550781 16.1875 -14.5625 C 15.21875 -15.570312 13.878906 -16.078125 12.171875 -16.078125 C 10.441406 -16.078125 9.097656 -15.566406 8.140625 -14.546875 C 7.179688 -13.535156 6.703125 -12.007812 6.703125 -9.96875 Z M 6.703125 -9.96875 "/></g></g></g><g fill="#008bfa" fill-opacity="1"><g transform="translate(141.438312, 22.403942)"><g><path d="M 4.078125 0 C 3.367188 0 2.820312 -0.191406 2.4375 -0.578125 C 2.0625 -0.972656 1.875 -1.519531 1.875 -2.21875 L 1.875 -17.8125 C 1.875 -19.425781 2.769531 -20.234375 4.5625 -20.234375 C 5.46875 -20.234375 6.140625 -20.035156 6.578125 -19.640625 C 7.015625 -19.253906 7.234375 -18.644531 7.234375 -17.8125 L 7.234375 -4.15625 L 18.5 -4.15625 C 19.21875 -4.15625 19.742188 -3.984375 20.078125 -3.640625 C 20.410156 -3.304688 20.578125 -2.785156 20.578125 -2.078125 C 20.578125 -0.691406 19.882812 0 18.5 0 Z M 4.078125 0 "/></g></g></g><g fill="#008bfa" fill-opacity="1"><g transform="translate(162.013853, 22.403942)"><g><path d="M 4.59375 0.28125 C 2.78125 0.28125 1.875 -0.535156 1.875 -2.171875 L 1.875 -17.78125 C 1.875 -19.414062 2.78125 -20.234375 4.59375 -20.234375 C 5.5 -20.234375 6.175781 -20.039062 6.625 -19.65625 C 7.070312 -19.28125 7.296875 -18.65625 7.296875 -17.78125 L 7.296875 -2.171875 C 7.296875 -1.316406 7.070312 -0.691406 6.625 -0.296875 C 6.175781 0.0859375 5.5 0.28125 4.59375 0.28125 Z M 4.59375 0.28125 "/></g></g></g><g fill="#008bfa" fill-opacity="1"><g transform="translate(170.591608, 22.403942)"><g><path d="M 10.828125 0.28125 C 9.722656 0.28125 8.847656 0.0664062 8.203125 -0.359375 C 7.554688 -0.785156 7.054688 -1.367188 6.703125 -2.109375 L 0.28125 -16.359375 C 0.113281 -16.734375 0.03125 -17.125 0.03125 -17.53125 C 0.03125 -18.019531 0.15625 -18.484375 0.40625 -18.921875 C 0.664062 -19.359375 1.035156 -19.703125 1.515625 -19.953125 C 1.890625 -20.117188 2.273438 -20.203125 2.671875 -20.203125 C 3.171875 -20.203125 3.640625 -20.070312 4.078125 -19.8125 C 4.515625 -19.5625 4.851562 -19.195312 5.09375 -18.71875 L 10.828125 -5.84375 L 16.59375 -18.71875 C 16.832031 -19.195312 17.171875 -19.5625 17.609375 -19.8125 C 18.046875 -20.070312 18.515625 -20.203125 19.015625 -20.203125 C 19.429688 -20.203125 19.816406 -20.117188 20.171875 -19.953125 C 20.648438 -19.703125 21.015625 -19.359375 21.265625 -18.921875 C 21.523438 -18.484375 21.65625 -18.019531 21.65625 -17.53125 C 21.65625 -17.125 21.570312 -16.734375 21.40625 -16.359375 L 14.96875 -2.109375 C 14.601562 -1.347656 14.09375 -0.757812 13.4375 -0.34375 C 12.78125 0.0703125 11.910156 0.28125 10.828125 0.28125 Z M 10.828125 0.28125 "/></g></g></g><g fill="#008bfa" fill-opacity="1"><g transform="translate(191.708616, 22.403942)"><g><path d="M 4.078125 0 C 3.367188 0 2.820312 -0.191406 2.4375 -0.578125 C 2.0625 -0.972656 1.875 -1.507812 1.875 -2.1875 L 1.875 -17.75 C 1.875 -18.4375 2.0625 -18.972656 2.4375 -19.359375 C 2.820312 -19.753906 3.367188 -19.953125 4.078125 -19.953125 L 18.640625 -19.953125 C 19.929688 -19.953125 20.578125 -19.304688 20.578125 -18.015625 C 20.578125 -16.722656 19.929688 -16.078125 18.640625 -16.078125 L 7.234375 -16.078125 L 7.234375 -11.9375 L 15.78125 -11.9375 C 17.082031 -11.9375 17.734375 -11.28125 17.734375 -9.96875 C 17.734375 -8.675781 17.082031 -8.03125 15.78125 -8.03125 L 7.234375 -8.03125 L 7.234375 -3.875 L 18.640625 -3.875 C 19.929688 -3.875 20.578125 -3.238281 20.578125 -1.96875 C 20.578125 -0.65625 19.929688 0 18.640625 0 Z M 4.078125 0 "/></g></g></g><g fill="#008bfa" fill-opacity="1"><g transform="translate(212.48366, 22.403942)"><g><path d="M 4.59375 0.28125 C 2.78125 0.28125 1.875 -0.535156 1.875 -2.171875 L 1.875 -17.78125 C 1.875 -19.414062 2.78125 -20.234375 4.59375 -20.234375 C 5.5 -20.234375 6.175781 -20.039062 6.625 -19.65625 C 7.070312 -19.28125 7.296875 -18.65625 7.296875 -17.78125 L 7.296875 -2.171875 C 7.296875 -1.316406 7.070312 -0.691406 6.625 -0.296875 C 6.175781 0.0859375 5.5 0.28125 4.59375 0.28125 Z M 4.59375 0.28125 "/></g></g></g><g fill="#008bfa" fill-opacity="1"><g transform="translate(221.06139, 22.403942)"><g><path d="M 4.5625 0.28125 C 2.769531 0.28125 1.875 -0.535156 1.875 -2.171875 L 1.875 -17.75 C 1.875 -18.4375 2.0625 -18.972656 2.4375 -19.359375 C 2.820312 -19.753906 3.367188 -19.953125 4.078125 -19.953125 L 13.390625 -19.953125 C 15.828125 -19.953125 17.613281 -19.441406 18.75 -18.421875 C 19.894531 -17.410156 20.46875 -15.859375 20.46875 -13.765625 C 20.46875 -11.023438 19.476562 -9.191406 17.5 -8.265625 C 17.820312 -7.941406 18.113281 -7.582031 18.375 -7.1875 L 20.640625 -4.125 C 21.054688 -3.632812 21.265625 -3.054688 21.265625 -2.390625 C 21.265625 -2.035156 21.191406 -1.6875 21.046875 -1.34375 C 20.898438 -1 20.675781 -0.691406 20.375 -0.421875 C 19.84375 0.015625 19.265625 0.234375 18.640625 0.234375 C 17.816406 0.234375 17.148438 -0.0703125 16.640625 -0.6875 L 13.25 -4.953125 C 12.894531 -5.503906 12.488281 -5.894531 12.03125 -6.125 C 11.570312 -6.351562 10.894531 -6.46875 10 -6.46875 L 7.234375 -6.46875 L 7.234375 -2.171875 C 7.234375 -1.316406 7.015625 -0.691406 6.578125 -0.296875 C 6.140625 0.0859375 5.46875 0.28125 4.5625 0.28125 Z M 7.234375 -10.578125 L 12.3125 -10.578125 C 13.257812 -10.578125 13.957031 -10.785156 14.40625 -11.203125 C 14.851562 -11.617188 15.078125 -12.285156 15.078125 -13.203125 C 15.078125 -14.941406 14.15625 -15.8125 12.3125 -15.8125 L 7.234375 -15.8125 Z M 7.234375 -10.578125 "/></g></g></g><g fill="#008bfa" fill-opacity="1"><g transform="translate(242.57738, 22.403942)"><g><path d="M 1.515625 0 C 1.035156 -0.25 0.664062 -0.59375 0.40625 -1.03125 C 0.15625 -1.46875 0.03125 -1.929688 0.03125 -2.421875 C 0.03125 -2.835938 0.113281 -3.226562 0.28125 -3.59375 L 6.71875 -17.875 C 7.082031 -18.613281 7.59375 -19.191406 8.25 -19.609375 C 8.90625 -20.023438 9.773438 -20.234375 10.859375 -20.234375 C 11.960938 -20.234375 12.835938 -20.019531 13.484375 -19.59375 C 14.128906 -19.164062 14.628906 -18.59375 14.984375 -17.875 L 21.40625 -3.59375 C 21.570312 -3.226562 21.65625 -2.835938 21.65625 -2.421875 C 21.65625 -1.929688 21.523438 -1.46875 21.265625 -1.03125 C 21.015625 -0.59375 20.648438 -0.25 20.171875 0 C 19.816406 0.164062 19.421875 0.25 18.984375 0.25 C 18.503906 0.25 18.039062 0.125 17.59375 -0.125 C 17.144531 -0.382812 16.8125 -0.75 16.59375 -1.21875 L 15.28125 -4.15625 L 6.40625 -4.15625 L 5.09375 -1.21875 C 4.875 -0.75 4.546875 -0.382812 4.109375 -0.125 C 3.671875 0.125 3.203125 0.25 2.703125 0.25 C 2.285156 0.25 1.890625 0.164062 1.515625 0 Z M 8.265625 -8.328125 L 13.421875 -8.328125 L 10.828125 -14.109375 Z M 8.265625 -8.328125 "/></g></g></g></g></g></svg>